# xmcd
#
# Track frame offsets: 
#        150
#        29025
#        70713
#        98640
#        131502
#        144935
#        179832
#        211955
#        248140
#        287468
#
# Disc length: 4272 seconds
#
# Revision: 7
# Processed by: cddbd v1.5.2PL0 Copyright (c) Steve Scherf et al.
# Submitted via: ExactAudioCopyFreeDBPlugin 1.0
#
DISCID=9110ae0a
DTITLE=James Brown - In the Jungle Groove
DYEAR=1986
DGENRE=Soul
TTITLE0=It's a New Day
TTITLE1=Funky Drummer
TTITLE2=Give it Up or Turnit a Loose (Remix)
TTITLE3=I Got to Move (previously unreleased)
TTITLE4=Funky Drummer (Bonus Beat Reprise)
TTITLE5=Talkin' Loud and Sayin' Nothing (Remix)
TTITLE6=Get Up, Get Into it and Get Involved (mono)
TTITLE7=Soul Power (Re-Edit) (mono)
TTITLE8=Hot Pants (She Got to Use What She Got to Get What She Wants)
TTITLE9=Blind Man Can See It (Extended) (previously unreleased)
EXTD=
EXTT0=
EXTT1=
EXTT2=
EXTT3=
EXTT4=
EXTT5=
EXTT6=
EXTT7=
EXTT8=
EXTT9=
PLAYORDER=
